<svg width="60" height="60" viewBox="0 0 60 60" fill="none" xmlns="http://www.w3.org/2000/svg">
<circle cx="30" cy="30" r="30" fill="#9C4DF4"/>
<path d="M35.0002 31.4098L30.7102 27.1698C30.6172 27.0761 30.5066 27.0017 30.3848 26.9509C30.2629 26.9002 30.1322 26.874 30.0002 26.874C29.8682 26.874 29.7375 26.9002 29.6156 26.9509C29.4938 27.0017 29.3832 27.0761 29.2902 27.1698L25.0502 31.4098C24.9565 31.5028 24.8821 31.6134 24.8313 31.7352C24.7805 31.8571 24.7544 31.9878 24.7544 32.1198C24.7544 32.2518 24.7805 32.3825 24.8313 32.5044C24.8821 32.6263 24.9565 32.7369 25.0502 32.8298C25.2376 33.0161 25.491 33.1206 25.7552 33.1206C26.0194 33.1206 26.2728 33.0161 26.4602 32.8298L30.0002 29.2898L33.5402 32.8298C33.7265 33.0146 33.9779 33.1187 34.2402 33.1198C34.3718 33.1206 34.5023 33.0954 34.6241 33.0456C34.7459 32.9958 34.8568 32.9225 34.9502 32.8298C35.0473 32.7402 35.1256 32.6322 35.1807 32.5122C35.2358 32.3921 35.2666 32.2623 35.2713 32.1302C35.2759 31.9982 35.2543 31.8666 35.2078 31.7429C35.1613 31.6193 35.0907 31.506 35.0002 31.4098Z" fill="white"/>
</svg>
