<svg width="70" height="70" viewBox="0 0 70 70" fill="none" xmlns="http://www.w3.org/2000/svg">
<rect width="70" height="70" rx="10" fill="#FFF4F2"/>
<path d="M35.009 44.3515C35.009 44.88 34.7037 45.3601 34.2258 45.5842C34.041 45.6716 33.8431 45.7139 33.6464 45.7139C33.3349 45.7139 33.0263 45.6068 32.777 45.4001L25.3291 39.2285H21.3623C20.6101 39.2291 20 38.6187 20 37.8664V32.4387C20 31.6861 20.6101 31.076 21.3623 31.076H25.3294L32.7774 24.9043C33.1843 24.567 33.7486 24.4951 34.2261 24.7208C34.7037 24.9449 35.0094 25.4254 35.0094 25.9536L35.009 44.3515ZM40.2446 42.2227C40.2114 42.225 40.1795 42.2263 40.1466 42.2263C39.7868 42.2263 39.4398 42.0841 39.1835 41.8274L39.0013 41.6446C38.5234 41.1677 38.4673 40.4122 38.8697 39.8698C39.8899 38.4942 40.4284 36.8636 40.4284 35.153C40.4284 33.3131 39.8171 31.5874 38.6601 30.1622C38.2197 29.6204 38.2603 28.8337 38.7539 28.3403L38.9358 28.1581C39.208 27.886 39.5726 27.7377 39.9673 27.7612C40.3517 27.7806 40.7106 27.9614 40.9543 28.2594C42.5592 30.2231 43.4069 32.6073 43.4069 35.1533C43.4069 37.5246 42.6572 39.7818 41.2384 41.6797C41.0014 41.996 40.639 42.1947 40.2446 42.2227ZM45.8772 46.4329C45.6308 46.7241 45.2745 46.8989 44.8931 46.915C44.8743 46.9156 44.8553 46.9163 44.836 46.9163C44.4752 46.9163 44.1289 46.7738 43.8725 46.5174L43.6935 46.3385C43.1934 45.8387 43.1596 45.0393 43.6142 44.4982C45.8114 41.8851 47.0219 38.5665 47.0219 35.153C47.0219 31.6025 45.7259 28.1846 43.3737 25.5289C42.8968 24.9898 42.921 24.1736 43.4285 23.6642L43.6071 23.4852C43.8722 23.2189 44.2166 23.0722 44.6116 23.0847C44.9866 23.0954 45.3413 23.2611 45.5905 23.5416C48.4339 26.7429 50 30.867 50 35.153C50.0006 39.2768 48.5364 43.2829 45.8772 46.4329Z" fill="#FF6652"/>
</svg>
