<svg width="60" height="60" viewBox="0 0 60 60" fill="none" xmlns="http://www.w3.org/2000/svg">
<circle cx="30" cy="30" r="30" fill="#FF6652"/>
<g clip-path="url(#clip0_28_2141)">
<path d="M38.0245 33.2739C37.1548 32.4042 36.1719 31.7041 35.1325 31.1738C34.9678 31.0925 34.8294 30.9665 34.7331 30.8102C34.6368 30.6538 34.5865 30.4735 34.588 30.2899L34.8708 27.7868C31.9151 26.7402 28.2382 26.6695 25.1693 27.7443L25.3744 30.297C25.3673 30.6859 25.1481 31.0182 24.8229 31.1879C23.7763 31.7112 22.8005 32.4183 21.9308 33.288C21.549 33.6699 20.9126 33.6699 20.5307 33.288L18.0841 30.8415C17.7023 30.4596 17.4124 29.8303 17.9427 29.3C24.5117 22.7309 35.4365 22.738 41.9985 29.3C42.5005 29.802 42.253 30.4455 41.8641 30.8344L39.4246 33.2739C39.0428 33.6557 38.4064 33.6557 38.0245 33.2739Z" fill="white"/>
</g>
<defs>
<clipPath id="clip0_28_2141">
<rect width="24" height="24" fill="white" transform="matrix(0.707107 0.707107 0.707107 -0.707107 13 30)"/>
</clipPath>
</defs>
</svg>
