<svg width="551" height="232" viewBox="0 0 551 232" fill="none" xmlns="http://www.w3.org/2000/svg">
<g filter="url(#filter0_d_12_41)">
<rect x="6" y="3" width="52" height="52" rx="26" fill="white"/>
<path d="M32 19.6667C33.2377 19.6667 34.4247 20.1584 35.2998 21.0336C36.175 21.9088 36.6667 23.0957 36.6667 24.3334C36.6667 25.5711 36.175 26.7581 35.2998 27.6332C34.4247 28.5084 33.2377 29.0001 32 29.0001C30.7623 29.0001 29.5753 28.5084 28.7002 27.6332C27.825 26.7581 27.3333 25.5711 27.3333 24.3334C27.3333 23.0957 27.825 21.9088 28.7002 21.0336C29.5753 20.1584 30.7623 19.6667 32 19.6667V19.6667ZM32 31.3334C37.1567 31.3334 41.3333 33.4217 41.3333 36.0001V38.3334H22.6667V36.0001C22.6667 33.4217 26.8433 31.3334 32 31.3334Z" fill="#3DBD96"/>
</g>
<path d="M98.68 20.08L88.04 45H82.36L93.08 20.72H79.4V15.92H98.68V20.08ZM104.354 45.28C103.341 45.28 102.501 44.9733 101.834 44.36C101.194 43.72 100.874 42.9333 100.874 42C100.874 41.0667 101.194 40.2933 101.834 39.68C102.501 39.04 103.341 38.72 104.354 38.72C105.341 38.72 106.154 39.04 106.794 39.68C107.434 40.2933 107.754 41.0667 107.754 42C107.754 42.9333 107.434 43.72 106.794 44.36C106.154 44.9733 105.341 45.28 104.354 45.28ZM130.425 20.68H117.465V27.52C118.025 26.8267 118.825 26.2667 119.865 25.84C120.905 25.3867 122.011 25.16 123.185 25.16C125.318 25.16 127.065 25.6267 128.425 26.56C129.785 27.4933 130.771 28.6933 131.385 30.16C131.998 31.6 132.305 33.1467 132.305 34.8C132.305 37.8667 131.425 40.3333 129.665 42.2C127.931 44.0667 125.451 45 122.225 45C119.185 45 116.758 44.24 114.945 42.72C113.131 41.2 112.105 39.2133 111.865 36.76H117.305C117.545 37.8267 118.078 38.68 118.905 39.32C119.758 39.96 120.838 40.28 122.145 40.28C123.718 40.28 124.905 39.7867 125.705 38.8C126.505 37.8133 126.905 36.5067 126.905 34.88C126.905 33.2267 126.491 31.9733 125.665 31.12C124.865 30.24 123.678 29.8 122.105 29.8C120.985 29.8 120.051 30.08 119.305 30.64C118.558 31.2 118.025 31.9467 117.705 32.88H112.345V15.76H130.425V20.68ZM149.527 45L142.007 35.56V45H136.407V15.4H142.007V32.24L149.447 22.84H156.727L146.967 33.96L156.807 45H149.527ZM179.886 33.2H172.326V40.96H167.046V33.2H159.486V28.32H167.046V20.56H172.326V28.32H179.886V33.2Z" fill="#160041"/>
<path d="M85.084 75.242V76.278H82.424V85H81.15V76.278H78.476V75.242H85.084ZM89.7182 85.126C88.9996 85.126 88.3462 84.9627 87.7582 84.636C87.1796 84.3093 86.7222 83.8473 86.3862 83.25C86.0596 82.6433 85.8962 81.9433 85.8962 81.15C85.8962 80.366 86.0642 79.6753 86.4002 79.078C86.7456 78.4713 87.2122 78.0093 87.8002 77.692C88.3882 77.3653 89.0462 77.202 89.7742 77.202C90.5022 77.202 91.1602 77.3653 91.7482 77.692C92.3362 78.0093 92.7982 78.4667 93.1342 79.064C93.4796 79.6613 93.6522 80.3567 93.6522 81.15C93.6522 81.9433 93.4749 82.6433 93.1202 83.25C92.7749 83.8473 92.3036 84.3093 91.7062 84.636C91.1089 84.9627 90.4462 85.126 89.7182 85.126ZM89.7182 84.006C90.1756 84.006 90.6049 83.8987 91.0062 83.684C91.4076 83.4693 91.7296 83.1473 91.9722 82.718C92.2242 82.2887 92.3502 81.766 92.3502 81.15C92.3502 80.534 92.2289 80.0113 91.9862 79.582C91.7436 79.1527 91.4262 78.8353 91.0342 78.63C90.6422 78.4153 90.2176 78.308 89.7602 78.308C89.2936 78.308 88.8642 78.4153 88.4722 78.63C88.0896 78.8353 87.7816 79.1527 87.5482 79.582C87.3149 80.0113 87.1982 80.534 87.1982 81.15C87.1982 81.7753 87.3102 82.3027 87.5342 82.732C87.7676 83.1613 88.0756 83.4833 88.4582 83.698C88.8409 83.9033 89.2609 84.006 89.7182 84.006ZM96.6013 78.378V82.9C96.6013 83.2733 96.6806 83.5393 96.8393 83.698C96.998 83.8473 97.2733 83.922 97.6653 83.922H98.6033V85H97.4553C96.746 85 96.214 84.8367 95.8593 84.51C95.5046 84.1833 95.3273 83.6467 95.3273 82.9V78.378H94.3333V77.328H95.3273V75.396H96.6013V77.328H98.6033V78.378H96.6013ZM99.3909 81.136C99.3909 80.352 99.5496 79.666 99.8669 79.078C100.184 78.4807 100.618 78.0187 101.169 77.692C101.729 77.3653 102.35 77.202 103.031 77.202C103.703 77.202 104.286 77.3467 104.781 77.636C105.276 77.9253 105.644 78.2893 105.887 78.728V77.328H107.175V85H105.887V83.572C105.635 84.02 105.257 84.3933 104.753 84.692C104.258 84.9813 103.68 85.126 103.017 85.126C102.336 85.126 101.72 84.958 101.169 84.622C100.618 84.286 100.184 83.8147 99.8669 83.208C99.5496 82.6013 99.3909 81.9107 99.3909 81.136ZM105.887 81.15C105.887 80.5713 105.77 80.0673 105.537 79.638C105.304 79.2087 104.986 78.882 104.585 78.658C104.193 78.4247 103.759 78.308 103.283 78.308C102.807 78.308 102.373 78.42 101.981 78.644C101.589 78.868 101.276 79.1947 101.043 79.624C100.81 80.0533 100.693 80.5573 100.693 81.136C100.693 81.724 100.81 82.2373 101.043 82.676C101.276 83.1053 101.589 83.4367 101.981 83.67C102.373 83.894 102.807 84.006 103.283 84.006C103.759 84.006 104.193 83.894 104.585 83.67C104.986 83.4367 105.304 83.1053 105.537 82.676C105.77 82.2373 105.887 81.7287 105.887 81.15ZM110.322 74.64V85H109.048V74.64H110.322ZM115.19 81.136C115.19 80.352 115.348 79.666 115.666 79.078C115.983 78.4807 116.417 78.0187 116.968 77.692C117.528 77.3653 118.148 77.202 118.83 77.202C119.502 77.202 120.085 77.3467 120.58 77.636C121.074 77.9253 121.443 78.2893 121.686 78.728V77.328H122.974V85H121.686V83.572C121.434 84.02 121.056 84.3933 120.552 84.692C120.057 84.9813 119.478 85.126 118.816 85.126C118.134 85.126 117.518 84.958 116.968 84.622C116.417 84.286 115.983 83.8147 115.666 83.208C115.348 82.6013 115.19 81.9107 115.19 81.136ZM121.686 81.15C121.686 80.5713 121.569 80.0673 121.336 79.638C121.102 79.2087 120.785 78.882 120.384 78.658C119.992 78.4247 119.558 78.308 119.082 78.308C118.606 78.308 118.172 78.42 117.78 78.644C117.388 78.868 117.075 79.1947 116.842 79.624C116.608 80.0533 116.492 80.5573 116.492 81.136C116.492 81.724 116.608 82.2373 116.842 82.676C117.075 83.1053 117.388 83.4367 117.78 83.67C118.172 83.894 118.606 84.006 119.082 84.006C119.558 84.006 119.992 83.894 120.384 83.67C120.785 83.4367 121.102 83.1053 121.336 82.676C121.569 82.2373 121.686 81.7287 121.686 81.15ZM124.371 81.15C124.371 80.3567 124.529 79.666 124.847 79.078C125.164 78.4807 125.603 78.0187 126.163 77.692C126.732 77.3653 127.381 77.202 128.109 77.202C129.051 77.202 129.826 77.4307 130.433 77.888C131.049 78.3453 131.455 78.98 131.651 79.792H130.279C130.148 79.3253 129.891 78.9567 129.509 78.686C129.135 78.4153 128.669 78.28 128.109 78.28C127.381 78.28 126.793 78.532 126.345 79.036C125.897 79.5307 125.673 80.2353 125.673 81.15C125.673 82.074 125.897 82.788 126.345 83.292C126.793 83.796 127.381 84.048 128.109 84.048C128.669 84.048 129.135 83.9173 129.509 83.656C129.882 83.3947 130.139 83.0213 130.279 82.536H131.651C131.445 83.32 131.035 83.95 130.419 84.426C129.803 84.8927 129.033 85.126 128.109 85.126C127.381 85.126 126.732 84.9627 126.163 84.636C125.603 84.3093 125.164 83.8473 124.847 83.25C124.529 82.6527 124.371 81.9527 124.371 81.15ZM134.624 78.378V82.9C134.624 83.2733 134.704 83.5393 134.862 83.698C135.021 83.8473 135.296 83.922 135.688 83.922H136.626V85H135.478C134.769 85 134.237 84.8367 133.882 84.51C133.528 84.1833 133.35 83.6467 133.35 82.9V78.378H132.356V77.328H133.35V75.396H134.624V77.328H136.626V78.378H134.624ZM138.548 76.082C138.305 76.082 138.1 75.998 137.932 75.83C137.764 75.662 137.68 75.4567 137.68 75.214C137.68 74.9713 137.764 74.766 137.932 74.598C138.1 74.43 138.305 74.346 138.548 74.346C138.781 74.346 138.977 74.43 139.136 74.598C139.304 74.766 139.388 74.9713 139.388 75.214C139.388 75.4567 139.304 75.662 139.136 75.83C138.977 75.998 138.781 76.082 138.548 76.082ZM139.164 77.328V85H137.89V77.328H139.164ZM143.911 83.824L146.291 77.328H147.649L144.639 85H143.155L140.145 77.328H141.517L143.911 83.824ZM155.623 80.87C155.623 81.1127 155.609 81.3693 155.581 81.64H149.449C149.496 82.396 149.752 82.9887 150.219 83.418C150.695 83.838 151.269 84.048 151.941 84.048C152.492 84.048 152.949 83.922 153.313 83.67C153.686 83.4087 153.948 83.0633 154.097 82.634H155.469C155.264 83.3713 154.853 83.9733 154.237 84.44C153.621 84.8973 152.856 85.126 151.941 85.126C151.213 85.126 150.56 84.9627 149.981 84.636C149.412 84.3093 148.964 83.8473 148.637 83.25C148.31 82.6433 148.147 81.9433 148.147 81.15C148.147 80.3567 148.306 79.6613 148.623 79.064C148.94 78.4667 149.384 78.0093 149.953 77.692C150.532 77.3653 151.194 77.202 151.941 77.202C152.669 77.202 153.313 77.3607 153.873 77.678C154.433 77.9953 154.862 78.434 155.161 78.994C155.469 79.5447 155.623 80.17 155.623 80.87ZM154.307 80.604C154.307 80.1187 154.2 79.7033 153.985 79.358C153.77 79.0033 153.476 78.7373 153.103 78.56C152.739 78.3733 152.333 78.28 151.885 78.28C151.241 78.28 150.69 78.4853 150.233 78.896C149.785 79.3067 149.528 79.876 149.463 80.604H154.307ZM163.193 85.126C162.605 85.126 162.078 85.028 161.611 84.832C161.144 84.6267 160.776 84.3467 160.505 83.992C160.234 83.628 160.085 83.2127 160.057 82.746H161.373C161.41 83.1287 161.588 83.4413 161.905 83.684C162.232 83.9267 162.656 84.048 163.179 84.048C163.664 84.048 164.047 83.9407 164.327 83.726C164.607 83.5113 164.747 83.2407 164.747 82.914C164.747 82.578 164.598 82.3307 164.299 82.172C164 82.004 163.538 81.8407 162.913 81.682C162.344 81.5327 161.877 81.3833 161.513 81.234C161.158 81.0753 160.85 80.8467 160.589 80.548C160.337 80.24 160.211 79.8387 160.211 79.344C160.211 78.952 160.328 78.5927 160.561 78.266C160.794 77.9393 161.126 77.6827 161.555 77.496C161.984 77.3 162.474 77.202 163.025 77.202C163.874 77.202 164.56 77.4167 165.083 77.846C165.606 78.2753 165.886 78.8633 165.923 79.61H164.649C164.621 79.2087 164.458 78.8867 164.159 78.644C163.87 78.4013 163.478 78.28 162.983 78.28C162.526 78.28 162.162 78.378 161.891 78.574C161.62 78.77 161.485 79.0267 161.485 79.344C161.485 79.596 161.564 79.806 161.723 79.974C161.891 80.1327 162.096 80.2633 162.339 80.366C162.591 80.4593 162.936 80.5667 163.375 80.688C163.926 80.8373 164.374 80.9867 164.719 81.136C165.064 81.276 165.358 81.4907 165.601 81.78C165.853 82.0693 165.984 82.4473 165.993 82.914C165.993 83.334 165.876 83.712 165.643 84.048C165.41 84.384 165.078 84.65 164.649 84.846C164.229 85.0327 163.744 85.126 163.193 85.126ZM169.066 78.378V82.9C169.066 83.2733 169.145 83.5393 169.304 83.698C169.462 83.8473 169.738 83.922 170.13 83.922H171.068V85H169.92C169.21 85 168.678 84.8367 168.324 84.51C167.969 84.1833 167.792 83.6467 167.792 82.9V78.378H166.798V77.328H167.792V75.396H169.066V77.328H171.068V78.378H169.066ZM179.135 77.328V85H177.861V83.866C177.618 84.258 177.278 84.566 176.839 84.79C176.41 85.0047 175.934 85.112 175.411 85.112C174.814 85.112 174.277 84.9907 173.801 84.748C173.325 84.496 172.947 84.1227 172.667 83.628C172.396 83.1333 172.261 82.5313 172.261 81.822V77.328H173.521V81.654C173.521 82.41 173.712 82.9933 174.095 83.404C174.478 83.8053 175 84.006 175.663 84.006C176.344 84.006 176.881 83.796 177.273 83.376C177.665 82.956 177.861 82.3447 177.861 81.542V77.328H179.135ZM180.53 81.136C180.53 80.352 180.689 79.666 181.006 79.078C181.324 78.4807 181.758 78.0187 182.308 77.692C182.868 77.3653 183.494 77.202 184.184 77.202C184.782 77.202 185.337 77.342 185.85 77.622C186.364 77.8927 186.756 78.252 187.026 78.7V74.64H188.314V85H187.026V83.558C186.774 84.0153 186.401 84.3933 185.906 84.692C185.412 84.9813 184.833 85.126 184.17 85.126C183.489 85.126 182.868 84.958 182.308 84.622C181.758 84.286 181.324 83.8147 181.006 83.208C180.689 82.6013 180.53 81.9107 180.53 81.136ZM187.026 81.15C187.026 80.5713 186.91 80.0673 186.676 79.638C186.443 79.2087 186.126 78.882 185.724 78.658C185.332 78.4247 184.898 78.308 184.422 78.308C183.946 78.308 183.512 78.42 183.12 78.644C182.728 78.868 182.416 79.1947 182.182 79.624C181.949 80.0533 181.832 80.5573 181.832 81.136C181.832 81.724 181.949 82.2373 182.182 82.676C182.416 83.1053 182.728 83.4367 183.12 83.67C183.512 83.894 183.946 84.006 184.422 84.006C184.898 84.006 185.332 83.894 185.724 83.67C186.126 83.4367 186.443 83.1053 186.676 82.676C186.91 82.2373 187.026 81.7287 187.026 81.15ZM197.187 80.87C197.187 81.1127 197.173 81.3693 197.145 81.64H191.013C191.06 82.396 191.316 82.9887 191.783 83.418C192.259 83.838 192.833 84.048 193.505 84.048C194.056 84.048 194.513 83.922 194.877 83.67C195.25 83.4087 195.512 83.0633 195.661 82.634H197.033C196.828 83.3713 196.417 83.9733 195.801 84.44C195.185 84.8973 194.42 85.126 193.505 85.126C192.777 85.126 192.124 84.9627 191.545 84.636C190.976 84.3093 190.528 83.8473 190.201 83.25C189.874 82.6433 189.711 81.9433 189.711 81.15C189.711 80.3567 189.87 79.6613 190.187 79.064C190.504 78.4667 190.948 78.0093 191.517 77.692C192.096 77.3653 192.758 77.202 193.505 77.202C194.233 77.202 194.877 77.3607 195.437 77.678C195.997 77.9953 196.426 78.434 196.725 78.994C197.033 79.5447 197.187 80.17 197.187 80.87ZM195.871 80.604C195.871 80.1187 195.764 79.7033 195.549 79.358C195.334 79.0033 195.04 78.7373 194.667 78.56C194.303 78.3733 193.897 78.28 193.449 78.28C192.805 78.28 192.254 78.4853 191.797 78.896C191.349 79.3067 191.092 79.876 191.027 80.604H195.871ZM202.327 77.188C203.26 77.188 204.016 77.4727 204.595 78.042C205.173 78.602 205.463 79.414 205.463 80.478V85H204.203V80.66C204.203 79.8947 204.011 79.3113 203.629 78.91C203.246 78.4993 202.723 78.294 202.061 78.294C201.389 78.294 200.852 78.504 200.451 78.924C200.059 79.344 199.863 79.9553 199.863 80.758V85H198.589V77.328H199.863V78.42C200.115 78.028 200.455 77.7247 200.885 77.51C201.323 77.2953 201.804 77.188 202.327 77.188ZM208.818 78.378V82.9C208.818 83.2733 208.897 83.5393 209.056 83.698C209.215 83.8473 209.49 83.922 209.882 83.922H210.82V85H209.672C208.963 85 208.431 84.8367 208.076 84.51C207.721 84.1833 207.544 83.6467 207.544 82.9V78.378H206.55V77.328H207.544V75.396H208.818V77.328H210.82V78.378H208.818ZM214.799 85.126C214.211 85.126 213.684 85.028 213.217 84.832C212.751 84.6267 212.382 84.3467 212.111 83.992C211.841 83.628 211.691 83.2127 211.663 82.746H212.979C213.017 83.1287 213.194 83.4413 213.511 83.684C213.838 83.9267 214.263 84.048 214.785 84.048C215.271 84.048 215.653 83.9407 215.933 83.726C216.213 83.5113 216.353 83.2407 216.353 82.914C216.353 82.578 216.204 82.3307 215.905 82.172C215.607 82.004 215.145 81.8407 214.519 81.682C213.95 81.5327 213.483 81.3833 213.119 81.234C212.765 81.0753 212.457 80.8467 212.195 80.548C211.943 80.24 211.817 79.8387 211.817 79.344C211.817 78.952 211.934 78.5927 212.167 78.266C212.401 77.9393 212.732 77.6827 213.161 77.496C213.591 77.3 214.081 77.202 214.631 77.202C215.481 77.202 216.167 77.4167 216.689 77.846C217.212 78.2753 217.492 78.8633 217.529 79.61H216.255C216.227 79.2087 216.064 78.8867 215.765 78.644C215.476 78.4013 215.084 78.28 214.589 78.28C214.132 78.28 213.768 78.378 213.497 78.574C213.227 78.77 213.091 79.0267 213.091 79.344C213.091 79.596 213.171 79.806 213.329 79.974C213.497 80.1327 213.703 80.2633 213.945 80.366C214.197 80.4593 214.543 80.5667 214.981 80.688C215.532 80.8373 215.98 80.9867 216.325 81.136C216.671 81.276 216.965 81.4907 217.207 81.78C217.459 82.0693 217.59 82.4473 217.599 82.914C217.599 83.334 217.483 83.712 217.249 84.048C217.016 84.384 216.685 84.65 216.255 84.846C215.835 85.0327 215.35 85.126 214.799 85.126ZM224.124 78.378V82.9C224.124 83.2733 224.204 83.5393 224.362 83.698C224.521 83.8473 224.796 83.922 225.188 83.922H226.126V85H224.978C224.269 85 223.737 84.8367 223.382 84.51C223.028 84.1833 222.85 83.6467 222.85 82.9V78.378H221.856V77.328H222.85V75.396H224.124V77.328H226.126V78.378H224.124ZM226.914 81.136C226.914 80.352 227.073 79.666 227.39 79.078C227.707 78.4807 228.141 78.0187 228.692 77.692C229.252 77.3653 229.873 77.202 230.554 77.202C231.226 77.202 231.809 77.3467 232.304 77.636C232.799 77.9253 233.167 78.2893 233.41 78.728V77.328H234.698V85H233.41V83.572C233.158 84.02 232.78 84.3933 232.276 84.692C231.781 84.9813 231.203 85.126 230.54 85.126C229.859 85.126 229.243 84.958 228.692 84.622C228.141 84.286 227.707 83.8147 227.39 83.208C227.073 82.6013 226.914 81.9107 226.914 81.136ZM233.41 81.15C233.41 80.5713 233.293 80.0673 233.06 79.638C232.827 79.2087 232.509 78.882 232.108 78.658C231.716 78.4247 231.282 78.308 230.806 78.308C230.33 78.308 229.896 78.42 229.504 78.644C229.112 78.868 228.799 79.1947 228.566 79.624C228.333 80.0533 228.216 80.5573 228.216 81.136C228.216 81.724 228.333 82.2373 228.566 82.676C228.799 83.1053 229.112 83.4367 229.504 83.67C229.896 83.894 230.33 84.006 230.806 84.006C231.282 84.006 231.716 83.894 232.108 83.67C232.509 83.4367 232.827 83.1053 233.06 82.676C233.293 82.2373 233.41 81.7287 233.41 81.15ZM240.855 85L237.845 81.612V85H236.571V74.64H237.845V80.73L240.799 77.328H242.577L238.965 81.15L242.591 85H240.855ZM244.154 76.082C243.911 76.082 243.706 75.998 243.538 75.83C243.37 75.662 243.286 75.4567 243.286 75.214C243.286 74.9713 243.37 74.766 243.538 74.598C243.706 74.43 243.911 74.346 244.154 74.346C244.387 74.346 244.583 74.43 244.742 74.598C244.91 74.766 244.994 74.9713 244.994 75.214C244.994 75.4567 244.91 75.662 244.742 75.83C244.583 75.998 244.387 76.082 244.154 76.082ZM244.77 77.328V85H243.496V77.328H244.77ZM250.399 77.188C251.333 77.188 252.089 77.4727 252.667 78.042C253.246 78.602 253.535 79.414 253.535 80.478V85H252.275V80.66C252.275 79.8947 252.084 79.3113 251.701 78.91C251.319 78.4993 250.796 78.294 250.133 78.294C249.461 78.294 248.925 78.504 248.523 78.924C248.131 79.344 247.935 79.9553 247.935 80.758V85H246.661V77.328H247.935V78.42C248.187 78.028 248.528 77.7247 248.957 77.51C249.396 77.2953 249.877 77.188 250.399 77.188ZM258.5 77.202C259.163 77.202 259.742 77.3467 260.236 77.636C260.74 77.9253 261.114 78.2893 261.356 78.728V77.328H262.644V85.168C262.644 85.868 262.495 86.4887 262.196 87.03C261.898 87.5807 261.468 88.01 260.908 88.318C260.358 88.626 259.714 88.78 258.976 88.78C257.968 88.78 257.128 88.542 256.456 88.066C255.784 87.59 255.388 86.9413 255.266 86.12H256.526C256.666 86.5867 256.956 86.96 257.394 87.24C257.833 87.5293 258.36 87.674 258.976 87.674C259.676 87.674 260.246 87.4547 260.684 87.016C261.132 86.5773 261.356 85.9613 261.356 85.168V83.558C261.104 84.006 260.731 84.3793 260.236 84.678C259.742 84.9767 259.163 85.126 258.5 85.126C257.819 85.126 257.198 84.958 256.638 84.622C256.088 84.286 255.654 83.8147 255.336 83.208C255.019 82.6013 254.86 81.9107 254.86 81.136C254.86 80.352 255.019 79.666 255.336 79.078C255.654 78.4807 256.088 78.0187 256.638 77.692C257.198 77.3653 257.819 77.202 258.5 77.202ZM261.356 81.15C261.356 80.5713 261.24 80.0673 261.006 79.638C260.773 79.2087 260.456 78.882 260.054 78.658C259.662 78.4247 259.228 78.308 258.752 78.308C258.276 78.308 257.842 78.42 257.45 78.644C257.058 78.868 256.746 79.1947 256.512 79.624C256.279 80.0533 256.162 80.5573 256.162 81.136C256.162 81.724 256.279 82.2373 256.512 82.676C256.746 83.1053 257.058 83.4367 257.45 83.67C257.842 83.894 258.276 84.006 258.752 84.006C259.228 84.006 259.662 83.894 260.054 83.67C260.456 83.4367 260.773 83.1053 261.006 82.676C261.24 82.2373 261.356 81.7287 261.356 81.15ZM82.242 99.202C82.9047 99.202 83.4833 99.3467 83.978 99.636C84.482 99.9253 84.8553 100.289 85.098 100.728V99.328H86.386V107.168C86.386 107.868 86.2367 108.489 85.938 109.03C85.6393 109.581 85.21 110.01 84.65 110.318C84.0993 110.626 83.4553 110.78 82.718 110.78C81.71 110.78 80.87 110.542 80.198 110.066C79.526 109.59 79.1293 108.941 79.008 108.12H80.268C80.408 108.587 80.6973 108.96 81.136 109.24C81.5747 109.529 82.102 109.674 82.718 109.674C83.418 109.674 83.9873 109.455 84.426 109.016C84.874 108.577 85.098 107.961 85.098 107.168V105.558C84.846 106.006 84.4727 106.379 83.978 106.678C83.4833 106.977 82.9047 107.126 82.242 107.126C81.5607 107.126 80.94 106.958 80.38 106.622C79.8293 106.286 79.3953 105.815 79.078 105.208C78.7607 104.601 78.602 103.911 78.602 103.136C78.602 102.352 78.7607 101.666 79.078 101.078C79.3953 100.481 79.8293 100.019 80.38 99.692C80.94 99.3653 81.5607 99.202 82.242 99.202ZM85.098 103.15C85.098 102.571 84.9813 102.067 84.748 101.638C84.5147 101.209 84.1973 100.882 83.796 100.658C83.404 100.425 82.97 100.308 82.494 100.308C82.018 100.308 81.584 100.42 81.192 100.644C80.8 100.868 80.4873 101.195 80.254 101.624C80.0207 102.053 79.904 102.557 79.904 103.136C79.904 103.724 80.0207 104.237 80.254 104.676C80.4873 105.105 80.8 105.437 81.192 105.67C81.584 105.894 82.018 106.006 82.494 106.006C82.97 106.006 83.404 105.894 83.796 105.67C84.1973 105.437 84.5147 105.105 84.748 104.676C84.9813 104.237 85.098 103.729 85.098 103.15ZM88.9169 98.082C88.6743 98.082 88.4689 97.998 88.3009 97.83C88.1329 97.662 88.0489 97.4567 88.0489 97.214C88.0489 96.9713 88.1329 96.766 88.3009 96.598C88.4689 96.43 88.6743 96.346 88.9169 96.346C89.1503 96.346 89.3463 96.43 89.5049 96.598C89.6729 96.766 89.7569 96.9713 89.7569 97.214C89.7569 97.4567 89.6729 97.662 89.5049 97.83C89.3463 97.998 89.1503 98.082 88.9169 98.082ZM89.5329 99.328V107H88.2589V99.328H89.5329ZM94.5462 100.378H92.9362V107H91.6622V100.378H90.6682V99.328H91.6622V98.782C91.6622 97.9233 91.8816 97.298 92.3202 96.906C92.7682 96.5047 93.4822 96.304 94.4622 96.304V97.368C93.9022 97.368 93.5056 97.48 93.2722 97.704C93.0482 97.9187 92.9362 98.278 92.9362 98.782V99.328H94.5462V100.378ZM97.3057 100.378V104.9C97.3057 105.273 97.385 105.539 97.5437 105.698C97.7023 105.847 97.9777 105.922 98.3697 105.922H99.3077V107H98.1597C97.4503 107 96.9183 106.837 96.5637 106.51C96.209 106.183 96.0317 105.647 96.0317 104.9V100.378H95.0377V99.328H96.0317V97.396H97.3057V99.328H99.3077V100.378H97.3057ZM107.571 102.87C107.571 103.113 107.557 103.369 107.529 103.64H101.397C101.444 104.396 101.701 104.989 102.167 105.418C102.643 105.838 103.217 106.048 103.889 106.048C104.44 106.048 104.897 105.922 105.261 105.67C105.635 105.409 105.896 105.063 106.045 104.634H107.417C107.212 105.371 106.801 105.973 106.185 106.44C105.569 106.897 104.804 107.126 103.889 107.126C103.161 107.126 102.508 106.963 101.929 106.636C101.36 106.309 100.912 105.847 100.585 105.25C100.259 104.643 100.095 103.943 100.095 103.15C100.095 102.357 100.254 101.661 100.571 101.064C100.889 100.467 101.332 100.009 101.901 99.692C102.48 99.3653 103.143 99.202 103.889 99.202C104.617 99.202 105.261 99.3607 105.821 99.678C106.381 99.9953 106.811 100.434 107.109 100.994C107.417 101.545 107.571 102.17 107.571 102.87ZM106.255 102.604C106.255 102.119 106.148 101.703 105.933 101.358C105.719 101.003 105.425 100.737 105.051 100.56C104.687 100.373 104.281 100.28 103.833 100.28C103.189 100.28 102.639 100.485 102.181 100.896C101.733 101.307 101.477 101.876 101.411 102.604H106.255ZM108.497 103.136C108.497 102.352 108.656 101.666 108.973 101.078C109.29 100.481 109.724 100.019 110.275 99.692C110.835 99.3653 111.46 99.202 112.151 99.202C112.748 99.202 113.304 99.342 113.817 99.622C114.33 99.8927 114.722 100.252 114.993 100.7V96.64H116.281V107H114.993V105.558C114.741 106.015 114.368 106.393 113.873 106.692C113.378 106.981 112.8 107.126 112.137 107.126C111.456 107.126 110.835 106.958 110.275 106.622C109.724 106.286 109.29 105.815 108.973 105.208C108.656 104.601 108.497 103.911 108.497 103.136ZM114.993 103.15C114.993 102.571 114.876 102.067 114.643 101.638C114.41 101.209 114.092 100.882 113.691 100.658C113.299 100.425 112.865 100.308 112.389 100.308C111.913 100.308 111.479 100.42 111.087 100.644C110.695 100.868 110.382 101.195 110.149 101.624C109.916 102.053 109.799 102.557 109.799 103.136C109.799 103.724 109.916 104.237 110.149 104.676C110.382 105.105 110.695 105.437 111.087 105.67C111.479 105.894 111.913 106.006 112.389 106.006C112.865 106.006 113.299 105.894 113.691 105.67C114.092 105.437 114.41 105.105 114.643 104.676C114.876 104.237 114.993 103.729 114.993 103.15ZM121.13 103.15C121.13 102.357 121.289 101.666 121.606 101.078C121.924 100.481 122.362 100.019 122.922 99.692C123.492 99.3653 124.14 99.202 124.868 99.202C125.811 99.202 126.586 99.4307 127.192 99.888C127.808 100.345 128.214 100.98 128.41 101.792H127.038C126.908 101.325 126.651 100.957 126.268 100.686C125.895 100.415 125.428 100.28 124.868 100.28C124.14 100.28 123.552 100.532 123.104 101.036C122.656 101.531 122.432 102.235 122.432 103.15C122.432 104.074 122.656 104.788 123.104 105.292C123.552 105.796 124.14 106.048 124.868 106.048C125.428 106.048 125.895 105.917 126.268 105.656C126.642 105.395 126.898 105.021 127.038 104.536H128.41C128.205 105.32 127.794 105.95 127.178 106.426C126.562 106.893 125.792 107.126 124.868 107.126C124.14 107.126 123.492 106.963 122.922 106.636C122.362 106.309 121.924 105.847 121.606 105.25C121.289 104.653 121.13 103.953 121.13 103.15ZM133.176 107.126C132.458 107.126 131.804 106.963 131.216 106.636C130.638 106.309 130.18 105.847 129.844 105.25C129.518 104.643 129.354 103.943 129.354 103.15C129.354 102.366 129.522 101.675 129.858 101.078C130.204 100.471 130.67 100.009 131.258 99.692C131.846 99.3653 132.504 99.202 133.232 99.202C133.96 99.202 134.618 99.3653 135.206 99.692C135.794 100.009 136.256 100.467 136.592 101.064C136.938 101.661 137.11 102.357 137.11 103.15C137.11 103.943 136.933 104.643 136.578 105.25C136.233 105.847 135.762 106.309 135.164 106.636C134.567 106.963 133.904 107.126 133.176 107.126ZM133.176 106.006C133.634 106.006 134.063 105.899 134.464 105.684C134.866 105.469 135.188 105.147 135.43 104.718C135.682 104.289 135.808 103.766 135.808 103.15C135.808 102.534 135.687 102.011 135.444 101.582C135.202 101.153 134.884 100.835 134.492 100.63C134.1 100.415 133.676 100.308 133.218 100.308C132.752 100.308 132.322 100.415 131.93 100.63C131.548 100.835 131.24 101.153 131.006 101.582C130.773 102.011 130.656 102.534 130.656 103.15C130.656 103.775 130.768 104.303 130.992 104.732C131.226 105.161 131.534 105.483 131.916 105.698C132.299 105.903 132.719 106.006 133.176 106.006ZM145.309 99.328V107H144.035V105.866C143.793 106.258 143.452 106.566 143.013 106.79C142.584 107.005 142.108 107.112 141.585 107.112C140.988 107.112 140.451 106.991 139.975 106.748C139.499 106.496 139.121 106.123 138.841 105.628C138.571 105.133 138.435 104.531 138.435 103.822V99.328H139.695V103.654C139.695 104.41 139.887 104.993 140.269 105.404C140.652 105.805 141.175 106.006 141.837 106.006C142.519 106.006 143.055 105.796 143.447 105.376C143.839 104.956 144.035 104.345 144.035 103.542V99.328H145.309ZM148.454 100.574C148.678 100.135 148.996 99.7947 149.406 99.552C149.826 99.3093 150.335 99.188 150.932 99.188V100.504H150.596C149.168 100.504 148.454 101.279 148.454 102.828V107H147.18V99.328H148.454V100.574ZM154.839 107.126C154.251 107.126 153.724 107.028 153.257 106.832C152.79 106.627 152.422 106.347 152.151 105.992C151.88 105.628 151.731 105.213 151.703 104.746H153.019C153.056 105.129 153.234 105.441 153.551 105.684C153.878 105.927 154.302 106.048 154.825 106.048C155.31 106.048 155.693 105.941 155.973 105.726C156.253 105.511 156.393 105.241 156.393 104.914C156.393 104.578 156.244 104.331 155.945 104.172C155.646 104.004 155.184 103.841 154.559 103.682C153.99 103.533 153.523 103.383 153.159 103.234C152.804 103.075 152.496 102.847 152.235 102.548C151.983 102.24 151.857 101.839 151.857 101.344C151.857 100.952 151.974 100.593 152.207 100.266C152.44 99.9393 152.772 99.6827 153.201 99.496C153.63 99.3 154.12 99.202 154.671 99.202C155.52 99.202 156.206 99.4167 156.729 99.846C157.252 100.275 157.532 100.863 157.569 101.61H156.295C156.267 101.209 156.104 100.887 155.805 100.644C155.516 100.401 155.124 100.28 154.629 100.28C154.172 100.28 153.808 100.378 153.537 100.574C153.266 100.77 153.131 101.027 153.131 101.344C153.131 101.596 153.21 101.806 153.369 101.974C153.537 102.133 153.742 102.263 153.985 102.366C154.237 102.459 154.582 102.567 155.021 102.688C155.572 102.837 156.02 102.987 156.365 103.136C156.71 103.276 157.004 103.491 157.247 103.78C157.499 104.069 157.63 104.447 157.639 104.914C157.639 105.334 157.522 105.712 157.289 106.048C157.056 106.384 156.724 106.65 156.295 106.846C155.875 107.033 155.39 107.126 154.839 107.126ZM166.157 102.87C166.157 103.113 166.143 103.369 166.115 103.64H159.983C160.03 104.396 160.287 104.989 160.753 105.418C161.229 105.838 161.803 106.048 162.475 106.048C163.026 106.048 163.483 105.922 163.847 105.67C164.221 105.409 164.482 105.063 164.631 104.634H166.003C165.798 105.371 165.387 105.973 164.771 106.44C164.155 106.897 163.39 107.126 162.475 107.126C161.747 107.126 161.094 106.963 160.515 106.636C159.946 106.309 159.498 105.847 159.171 105.25C158.845 104.643 158.681 103.943 158.681 103.15C158.681 102.357 158.84 101.661 159.157 101.064C159.475 100.467 159.918 100.009 160.487 99.692C161.066 99.3653 161.729 99.202 162.475 99.202C163.203 99.202 163.847 99.3607 164.407 99.678C164.967 99.9953 165.397 100.434 165.695 100.994C166.003 101.545 166.157 102.17 166.157 102.87ZM164.841 102.604C164.841 102.119 164.734 101.703 164.519 101.358C164.305 101.003 164.011 100.737 163.637 100.56C163.273 100.373 162.867 100.28 162.419 100.28C161.775 100.28 161.225 100.485 160.767 100.896C160.319 101.307 160.063 101.876 159.997 102.604H164.841ZM170.275 107.126C169.687 107.126 169.16 107.028 168.693 106.832C168.226 106.627 167.858 106.347 167.587 105.992C167.316 105.628 167.167 105.213 167.139 104.746H168.455C168.492 105.129 168.67 105.441 168.987 105.684C169.314 105.927 169.738 106.048 170.261 106.048C170.746 106.048 171.129 105.941 171.409 105.726C171.689 105.511 171.829 105.241 171.829 104.914C171.829 104.578 171.68 104.331 171.381 104.172C171.082 104.004 170.62 103.841 169.995 103.682C169.426 103.533 168.959 103.383 168.595 103.234C168.24 103.075 167.932 102.847 167.671 102.548C167.419 102.24 167.293 101.839 167.293 101.344C167.293 100.952 167.41 100.593 167.643 100.266C167.876 99.9393 168.208 99.6827 168.637 99.496C169.066 99.3 169.556 99.202 170.107 99.202C170.956 99.202 171.642 99.4167 172.165 99.846C172.688 100.275 172.968 100.863 173.005 101.61H171.731C171.703 101.209 171.54 100.887 171.241 100.644C170.952 100.401 170.56 100.28 170.065 100.28C169.608 100.28 169.244 100.378 168.973 100.574C168.702 100.77 168.567 101.027 168.567 101.344C168.567 101.596 168.646 101.806 168.805 101.974C168.973 102.133 169.178 102.263 169.421 102.366C169.673 102.459 170.018 102.567 170.457 102.688C171.008 102.837 171.456 102.987 171.801 103.136C172.146 103.276 172.44 103.491 172.683 103.78C172.935 104.069 173.066 104.447 173.075 104.914C173.075 105.334 172.958 105.712 172.725 106.048C172.492 106.384 172.16 106.65 171.731 106.846C171.311 107.033 170.826 107.126 170.275 107.126Z" fill="#160041"/>
<path d="M268.001 184.932C268.291 184.305 268.017 183.562 267.39 183.273L257.177 178.556C256.55 178.266 255.808 178.54 255.518 179.167C255.229 179.793 255.502 180.536 256.129 180.826L265.207 185.018L261.014 194.097C260.725 194.724 260.998 195.466 261.625 195.756C262.252 196.045 262.995 195.772 263.284 195.145L268.001 184.932ZM204.194 155.275C202.996 155.631 202.996 155.632 202.996 155.633C202.996 155.633 202.997 155.634 202.997 155.635C202.998 155.638 202.999 155.641 203 155.644C203.002 155.652 203.005 155.662 203.009 155.675C203.017 155.701 203.028 155.738 203.044 155.786C203.074 155.881 203.118 156.019 203.178 156.197C203.297 156.552 203.476 157.065 203.721 157.708C204.21 158.993 204.962 160.8 206.019 162.909C208.129 167.121 211.468 172.567 216.382 177.453C221.301 182.344 227.812 186.686 236.241 188.639C244.674 190.593 254.929 190.134 267.298 185.581L266.434 183.235C254.447 187.648 244.69 188.03 236.805 186.203C228.916 184.375 222.804 180.313 218.144 175.68C213.479 171.041 210.284 165.842 208.254 161.789C207.241 159.766 206.521 158.036 206.057 156.818C205.825 156.208 205.657 155.728 205.548 155.402C205.493 155.239 205.454 155.115 205.428 155.034C205.415 154.993 205.406 154.963 205.4 154.944C205.397 154.934 205.395 154.927 205.394 154.923C205.393 154.921 205.393 154.92 205.392 154.92C205.392 154.919 205.392 154.919 205.392 154.919C205.392 154.919 205.393 154.92 204.194 155.275Z" fill="#C9BDE0"/>
<path d="M287.012 13.8276C286.589 14.3731 286.688 15.1583 287.234 15.5815L296.122 22.4777C296.668 22.9009 297.453 22.8018 297.876 22.2564C298.299 21.7109 298.2 20.9257 297.655 20.5025L289.754 14.3725L295.884 6.47168C296.307 5.92624 296.208 5.14101 295.662 4.71783C295.117 4.29464 294.332 4.39375 293.909 4.93919L287.012 13.8276ZM342.5 57.0938C343.748 57.0174 343.748 57.0165 343.748 57.0155C343.748 57.0149 343.747 57.0137 343.747 57.0125C343.747 57.0102 343.747 57.0071 343.747 57.0033C343.746 56.9956 343.746 56.985 343.745 56.9714C343.743 56.9444 343.74 56.9057 343.736 56.8558C343.728 56.7559 343.716 56.6112 343.698 56.4247C343.662 56.0519 343.603 55.512 343.509 54.8306C343.321 53.4683 342.996 51.5379 342.442 49.2454C341.335 44.6667 339.308 38.608 335.621 32.7412C331.929 26.867 326.564 21.1709 318.791 17.3694C311.015 13.5663 300.92 11.7033 287.843 13.3537L288.157 15.8341C300.83 14.2345 310.422 16.059 317.693 19.6152C324.967 23.173 330.008 28.5082 333.504 34.0714C337.005 39.6421 338.947 45.4271 340.012 49.8328C340.543 52.0324 340.854 53.8793 341.032 55.1714C341.121 55.8172 341.176 56.3236 341.21 56.6653C341.226 56.8362 341.237 56.9658 341.244 57.051C341.247 57.0936 341.249 57.1251 341.251 57.1451C341.251 57.1551 341.252 57.1622 341.252 57.1664C341.252 57.1685 341.252 57.1699 341.252 57.1705C341.252 57.1708 341.252 57.1707 341.252 57.1709C341.252 57.1706 341.252 57.1701 342.5 57.0938Z" fill="#C9BDE0"/>
<g filter="url(#filter1_d_12_41)">
<rect x="288" y="121.094" width="52.5006" height="52.0014" rx="26.0007" fill="white"/>
<g clip-path="url(#clip0_12_41)">
<path d="M319.127 135.196C319.274 135.282 319.387 135.414 319.449 135.572C319.511 135.73 319.517 135.904 319.467 136.066L316.766 144.844H321.75C321.897 144.844 322.04 144.887 322.162 144.968C322.285 145.048 322.381 145.163 322.439 145.297C322.497 145.432 322.515 145.58 322.489 145.724C322.464 145.869 322.397 146.002 322.296 146.109L310.296 158.859C310.18 158.982 310.026 159.063 309.858 159.087C309.69 159.112 309.519 159.079 309.373 158.993C309.226 158.908 309.113 158.776 309.051 158.618C308.99 158.46 308.983 158.286 309.033 158.124L311.735 149.344H306.75C306.604 149.344 306.461 149.302 306.338 149.221C306.216 149.141 306.12 149.026 306.061 148.892C306.003 148.757 305.986 148.609 306.011 148.464C306.037 148.32 306.104 148.186 306.204 148.08L318.204 135.33C318.32 135.207 318.475 135.126 318.642 135.102C318.81 135.077 318.98 135.11 319.127 135.195V135.196Z" fill="#3DBD96"/>
</g>
</g>
<path d="M383.221 138.774H370.261V145.614C370.821 144.92 371.621 144.36 372.661 143.934C373.701 143.48 374.807 143.254 375.981 143.254C378.114 143.254 379.861 143.72 381.221 144.654C382.581 145.587 383.567 146.787 384.181 148.254C384.794 149.694 385.101 151.24 385.101 152.894C385.101 155.96 384.221 158.427 382.461 160.294C380.727 162.16 378.247 163.094 375.021 163.094C371.981 163.094 369.554 162.334 367.741 160.814C365.927 159.294 364.901 157.307 364.661 154.854H370.101C370.341 155.92 370.874 156.774 371.701 157.414C372.554 158.054 373.634 158.374 374.941 158.374C376.514 158.374 377.701 157.88 378.501 156.894C379.301 155.907 379.701 154.6 379.701 152.974C379.701 151.32 379.287 150.067 378.461 149.214C377.661 148.334 376.474 147.894 374.901 147.894C373.781 147.894 372.847 148.174 372.101 148.734C371.354 149.294 370.821 150.04 370.501 150.974H365.141V133.854H383.221V138.774ZM388.563 148.134C388.563 143.52 389.389 139.907 391.043 137.294C392.723 134.68 395.496 133.374 399.363 133.374C403.229 133.374 405.989 134.68 407.643 137.294C409.323 139.907 410.163 143.52 410.163 148.134C410.163 152.774 409.323 156.414 407.643 159.054C405.989 161.694 403.229 163.014 399.363 163.014C395.496 163.014 392.723 161.694 391.043 159.054C389.389 156.414 388.563 152.774 388.563 148.134ZM404.643 148.134C404.643 146.16 404.509 144.507 404.243 143.174C404.003 141.814 403.496 140.707 402.723 139.854C401.976 139 400.856 138.574 399.363 138.574C397.869 138.574 396.736 139 395.963 139.854C395.216 140.707 394.709 141.814 394.443 143.174C394.203 144.507 394.083 146.16 394.083 148.134C394.083 150.16 394.203 151.867 394.443 153.254C394.683 154.614 395.189 155.72 395.963 156.574C396.736 157.4 397.869 157.814 399.363 157.814C400.856 157.814 401.989 157.4 402.763 156.574C403.536 155.72 404.043 154.614 404.283 153.254C404.523 151.867 404.643 150.16 404.643 148.134ZM427.382 163.094L419.862 153.654V163.094H414.262V133.494H419.862V150.334L427.302 140.934H434.582L424.822 152.054L434.662 163.094H427.382ZM457.742 151.294H450.182V159.054H444.902V151.294H437.342V146.414H444.902V138.654H450.182V146.414H457.742V151.294Z" fill="#160041"/>
<path d="M368.347 200.924H364.091L363.307 203.094H361.963L365.491 193.392H366.961L370.475 203.094H369.131L368.347 200.924ZM367.983 199.888L366.219 194.96L364.455 199.888H367.983ZM374.588 201.918L376.968 195.422H378.326L375.316 203.094H373.832L370.822 195.422H372.194L374.588 201.918ZM378.824 199.23C378.824 198.446 378.983 197.76 379.3 197.172C379.617 196.574 380.051 196.112 380.602 195.786C381.162 195.459 381.783 195.296 382.464 195.296C383.136 195.296 383.719 195.44 384.214 195.73C384.709 196.019 385.077 196.383 385.32 196.822V195.422H386.608V203.094H385.32V201.666C385.068 202.114 384.69 202.487 384.186 202.786C383.691 203.075 383.113 203.22 382.45 203.22C381.769 203.22 381.153 203.052 380.602 202.716C380.051 202.38 379.617 201.908 379.3 201.302C378.983 200.695 378.824 200.004 378.824 199.23ZM385.32 199.244C385.32 198.665 385.203 198.161 384.97 197.732C384.737 197.302 384.419 196.976 384.018 196.752C383.626 196.518 383.192 196.402 382.716 196.402C382.24 196.402 381.806 196.514 381.414 196.738C381.022 196.962 380.709 197.288 380.476 197.718C380.243 198.147 380.126 198.651 380.126 199.23C380.126 199.818 380.243 200.331 380.476 200.77C380.709 201.199 381.022 201.53 381.414 201.764C381.806 201.988 382.24 202.1 382.716 202.1C383.192 202.1 383.626 201.988 384.018 201.764C384.419 201.53 384.737 201.199 384.97 200.77C385.203 200.331 385.32 199.822 385.32 199.244ZM389.139 194.176C388.896 194.176 388.691 194.092 388.523 193.924C388.355 193.756 388.271 193.55 388.271 193.308C388.271 193.065 388.355 192.86 388.523 192.692C388.691 192.524 388.896 192.44 389.139 192.44C389.372 192.44 389.568 192.524 389.727 192.692C389.895 192.86 389.979 193.065 389.979 193.308C389.979 193.55 389.895 193.756 389.727 193.924C389.568 194.092 389.372 194.176 389.139 194.176ZM389.755 195.422V203.094H388.481V195.422H389.755ZM392.92 192.734V203.094H391.646V192.734H392.92ZM394.335 199.23C394.335 198.446 394.494 197.76 394.811 197.172C395.129 196.574 395.563 196.112 396.113 195.786C396.673 195.459 397.294 195.296 397.975 195.296C398.647 195.296 399.231 195.44 399.725 195.73C400.22 196.019 400.589 196.383 400.831 196.822V195.422H402.119V203.094H400.831V201.666C400.579 202.114 400.201 202.487 399.697 202.786C399.203 203.075 398.624 203.22 397.961 203.22C397.28 203.22 396.664 203.052 396.113 202.716C395.563 202.38 395.129 201.908 394.811 201.302C394.494 200.695 394.335 200.004 394.335 199.23ZM400.831 199.244C400.831 198.665 400.715 198.161 400.481 197.732C400.248 197.302 399.931 196.976 399.529 196.752C399.137 196.518 398.703 196.402 398.227 196.402C397.751 196.402 397.317 196.514 396.925 196.738C396.533 196.962 396.221 197.288 395.987 197.718C395.754 198.147 395.637 198.651 395.637 199.23C395.637 199.818 395.754 200.331 395.987 200.77C396.221 201.199 396.533 201.53 396.925 201.764C397.317 201.988 397.751 202.1 398.227 202.1C398.703 202.1 399.137 201.988 399.529 201.764C399.931 201.53 400.248 201.199 400.481 200.77C400.715 200.331 400.831 199.822 400.831 199.244ZM405.266 196.85C405.528 196.392 405.91 196.019 406.414 195.73C406.918 195.44 407.492 195.296 408.136 195.296C408.827 195.296 409.448 195.459 409.998 195.786C410.549 196.112 410.983 196.574 411.3 197.172C411.618 197.76 411.776 198.446 411.776 199.23C411.776 200.004 411.618 200.695 411.3 201.302C410.983 201.908 410.544 202.38 409.984 202.716C409.434 203.052 408.818 203.22 408.136 203.22C407.474 203.22 406.89 203.075 406.386 202.786C405.892 202.496 405.518 202.128 405.266 201.68V203.094H403.992V192.734H405.266V196.85ZM410.474 199.23C410.474 198.651 410.358 198.147 410.124 197.718C409.891 197.288 409.574 196.962 409.172 196.738C408.78 196.514 408.346 196.402 407.87 196.402C407.404 196.402 406.97 196.518 406.568 196.752C406.176 196.976 405.859 197.307 405.616 197.746C405.383 198.175 405.266 198.674 405.266 199.244C405.266 199.822 405.383 200.331 405.616 200.77C405.859 201.199 406.176 201.53 406.568 201.764C406.97 201.988 407.404 202.1 407.87 202.1C408.346 202.1 408.78 201.988 409.172 201.764C409.574 201.53 409.891 201.199 410.124 200.77C410.358 200.331 410.474 199.818 410.474 199.23ZM414.447 192.734V203.094H413.173V192.734H414.447ZM423.339 198.964C423.339 199.206 423.325 199.463 423.297 199.734H417.165C417.211 200.49 417.468 201.082 417.935 201.512C418.411 201.932 418.985 202.142 419.657 202.142C420.207 202.142 420.665 202.016 421.029 201.764C421.402 201.502 421.663 201.157 421.813 200.728H423.185C422.979 201.465 422.569 202.067 421.953 202.534C421.337 202.991 420.571 203.22 419.657 203.22C418.929 203.22 418.275 203.056 417.697 202.73C417.127 202.403 416.679 201.941 416.353 201.344C416.026 200.737 415.863 200.037 415.863 199.244C415.863 198.45 416.021 197.755 416.339 197.158C416.656 196.56 417.099 196.103 417.669 195.786C418.247 195.459 418.91 195.296 419.657 195.296C420.385 195.296 421.029 195.454 421.589 195.772C422.149 196.089 422.578 196.528 422.877 197.088C423.185 197.638 423.339 198.264 423.339 198.964ZM422.023 198.698C422.023 198.212 421.915 197.797 421.701 197.452C421.486 197.097 421.192 196.831 420.819 196.654C420.455 196.467 420.049 196.374 419.601 196.374C418.957 196.374 418.406 196.579 417.949 196.99C417.501 197.4 417.244 197.97 417.179 198.698H422.023ZM431.315 196.472H429.705V203.094H428.431V196.472H427.437V195.422H428.431V194.876C428.431 194.017 428.65 193.392 429.089 193C429.537 192.598 430.251 192.398 431.231 192.398V193.462C430.671 193.462 430.274 193.574 430.041 193.798C429.817 194.012 429.705 194.372 429.705 194.876V195.422H431.315V196.472ZM433.178 194.176C432.935 194.176 432.73 194.092 432.562 193.924C432.394 193.756 432.31 193.55 432.31 193.308C432.31 193.065 432.394 192.86 432.562 192.692C432.73 192.524 432.935 192.44 433.178 192.44C433.411 192.44 433.607 192.524 433.766 192.692C433.934 192.86 434.018 193.065 434.018 193.308C434.018 193.55 433.934 193.756 433.766 193.924C433.607 194.092 433.411 194.176 433.178 194.176ZM433.794 195.422V203.094H432.52V195.422H433.794ZM442.685 198.964C442.685 199.206 442.671 199.463 442.643 199.734H436.511C436.558 200.49 436.815 201.082 437.281 201.512C437.757 201.932 438.331 202.142 439.003 202.142C439.554 202.142 440.011 202.016 440.375 201.764C440.749 201.502 441.01 201.157 441.159 200.728H442.531C442.326 201.465 441.915 202.067 441.299 202.534C440.683 202.991 439.918 203.22 439.003 203.22C438.275 203.22 437.622 203.056 437.043 202.73C436.474 202.403 436.026 201.941 435.699 201.344C435.373 200.737 435.209 200.037 435.209 199.244C435.209 198.45 435.368 197.755 435.685 197.158C436.003 196.56 436.446 196.103 437.015 195.786C437.594 195.459 438.257 195.296 439.003 195.296C439.731 195.296 440.375 195.454 440.935 195.772C441.495 196.089 441.925 196.528 442.223 197.088C442.531 197.638 442.685 198.264 442.685 198.964ZM441.369 198.698C441.369 198.212 441.262 197.797 441.047 197.452C440.833 197.097 440.539 196.831 440.165 196.654C439.801 196.467 439.395 196.374 438.947 196.374C438.303 196.374 437.753 196.579 437.295 196.99C436.847 197.4 436.591 197.97 436.525 198.698H441.369ZM445.361 192.734V203.094H444.087V192.734H445.361ZM446.776 199.23C446.776 198.446 446.935 197.76 447.252 197.172C447.57 196.574 448.004 196.112 448.554 195.786C449.114 195.459 449.74 195.296 450.43 195.296C451.028 195.296 451.583 195.436 452.096 195.716C452.61 195.986 453.002 196.346 453.272 196.794V192.734H454.56V203.094H453.272V201.652C453.02 202.109 452.647 202.487 452.152 202.786C451.658 203.075 451.079 203.22 450.416 203.22C449.735 203.22 449.114 203.052 448.554 202.716C448.004 202.38 447.57 201.908 447.252 201.302C446.935 200.695 446.776 200.004 446.776 199.23ZM453.272 199.244C453.272 198.665 453.156 198.161 452.922 197.732C452.689 197.302 452.372 196.976 451.97 196.752C451.578 196.518 451.144 196.402 450.668 196.402C450.192 196.402 449.758 196.514 449.366 196.738C448.974 196.962 448.662 197.288 448.428 197.718C448.195 198.147 448.078 198.651 448.078 199.23C448.078 199.818 448.195 200.331 448.428 200.77C448.662 201.199 448.974 201.53 449.366 201.764C449.758 201.988 450.192 202.1 450.668 202.1C451.144 202.1 451.578 201.988 451.97 201.764C452.372 201.53 452.689 201.199 452.922 200.77C453.156 200.331 453.272 199.822 453.272 199.244ZM461.16 196.836C461.412 196.397 461.785 196.033 462.28 195.744C462.784 195.445 463.367 195.296 464.03 195.296C464.711 195.296 465.327 195.459 465.878 195.786C466.438 196.112 466.876 196.574 467.194 197.172C467.511 197.76 467.67 198.446 467.67 199.23C467.67 200.004 467.511 200.695 467.194 201.302C466.876 201.908 466.438 202.38 465.878 202.716C465.327 203.052 464.711 203.22 464.03 203.22C463.376 203.22 462.798 203.075 462.294 202.786C461.799 202.487 461.421 202.118 461.16 201.68V206.734H459.886V195.422H461.16V196.836ZM466.368 199.23C466.368 198.651 466.251 198.147 466.018 197.718C465.784 197.288 465.467 196.962 465.066 196.738C464.674 196.514 464.24 196.402 463.764 196.402C463.297 196.402 462.863 196.518 462.462 196.752C462.07 196.976 461.752 197.307 461.51 197.746C461.276 198.175 461.16 198.674 461.16 199.244C461.16 199.822 461.276 200.331 461.51 200.77C461.752 201.199 462.07 201.53 462.462 201.764C462.863 201.988 463.297 202.1 463.764 202.1C464.24 202.1 464.674 201.988 465.066 201.764C465.467 201.53 465.784 201.199 466.018 200.77C466.251 200.331 466.368 199.818 466.368 199.23ZM470.341 196.668C470.565 196.229 470.882 195.888 471.293 195.646C471.713 195.403 472.221 195.282 472.819 195.282V196.598H472.483C471.055 196.598 470.341 197.372 470.341 198.922V203.094H469.067V195.422H470.341V196.668ZM477.355 203.22C476.637 203.22 475.983 203.056 475.395 202.73C474.817 202.403 474.359 201.941 474.023 201.344C473.697 200.737 473.533 200.037 473.533 199.244C473.533 198.46 473.701 197.769 474.037 197.172C474.383 196.565 474.849 196.103 475.437 195.786C476.025 195.459 476.683 195.296 477.411 195.296C478.139 195.296 478.797 195.459 479.385 195.786C479.973 196.103 480.435 196.56 480.771 197.158C481.117 197.755 481.289 198.45 481.289 199.244C481.289 200.037 481.112 200.737 480.757 201.344C480.412 201.941 479.941 202.403 479.343 202.73C478.746 203.056 478.083 203.22 477.355 203.22ZM477.355 202.1C477.813 202.1 478.242 201.992 478.643 201.778C479.045 201.563 479.367 201.241 479.609 200.812C479.861 200.382 479.987 199.86 479.987 199.244C479.987 198.628 479.866 198.105 479.623 197.676C479.381 197.246 479.063 196.929 478.671 196.724C478.279 196.509 477.855 196.402 477.397 196.402C476.931 196.402 476.501 196.509 476.109 196.724C475.727 196.929 475.419 197.246 475.185 197.676C474.952 198.105 474.835 198.628 474.835 199.244C474.835 199.869 474.947 200.396 475.171 200.826C475.405 201.255 475.713 201.577 476.095 201.792C476.478 201.997 476.898 202.1 477.355 202.1ZM485.848 195.296C486.511 195.296 487.09 195.44 487.584 195.73C488.088 196.019 488.462 196.383 488.704 196.822V195.422H489.992V203.262C489.992 203.962 489.843 204.582 489.544 205.124C489.246 205.674 488.816 206.104 488.256 206.412C487.706 206.72 487.062 206.874 486.324 206.874C485.316 206.874 484.476 206.636 483.804 206.16C483.132 205.684 482.736 205.035 482.614 204.214H483.874C484.014 204.68 484.304 205.054 484.742 205.334C485.181 205.623 485.708 205.768 486.324 205.768C487.024 205.768 487.594 205.548 488.032 205.11C488.48 204.671 488.704 204.055 488.704 203.262V201.652C488.452 202.1 488.079 202.473 487.584 202.772C487.09 203.07 486.511 203.22 485.848 203.22C485.167 203.22 484.546 203.052 483.986 202.716C483.436 202.38 483.002 201.908 482.684 201.302C482.367 200.695 482.208 200.004 482.208 199.23C482.208 198.446 482.367 197.76 482.684 197.172C483.002 196.574 483.436 196.112 483.986 195.786C484.546 195.459 485.167 195.296 485.848 195.296ZM488.704 199.244C488.704 198.665 488.588 198.161 488.354 197.732C488.121 197.302 487.804 196.976 487.402 196.752C487.01 196.518 486.576 196.402 486.1 196.402C485.624 196.402 485.19 196.514 484.798 196.738C484.406 196.962 484.094 197.288 483.86 197.718C483.627 198.147 483.51 198.651 483.51 199.23C483.51 199.818 483.627 200.331 483.86 200.77C484.094 201.199 484.406 201.53 484.798 201.764C485.19 201.988 485.624 202.1 486.1 202.1C486.576 202.1 487.01 201.988 487.402 201.764C487.804 201.53 488.121 201.199 488.354 200.77C488.588 200.331 488.704 199.822 488.704 199.244ZM493.139 196.668C493.363 196.229 493.681 195.888 494.091 195.646C494.511 195.403 495.02 195.282 495.617 195.282V196.598H495.281C493.853 196.598 493.139 197.372 493.139 198.922V203.094H491.865V195.422H493.139V196.668ZM496.332 199.23C496.332 198.446 496.491 197.76 496.808 197.172C497.125 196.574 497.559 196.112 498.11 195.786C498.67 195.459 499.291 195.296 499.972 195.296C500.644 195.296 501.227 195.44 501.722 195.73C502.217 196.019 502.585 196.383 502.828 196.822V195.422H504.116V203.094H502.828V201.666C502.576 202.114 502.198 202.487 501.694 202.786C501.199 203.075 500.621 203.22 499.958 203.22C499.277 203.22 498.661 203.052 498.11 202.716C497.559 202.38 497.125 201.908 496.808 201.302C496.491 200.695 496.332 200.004 496.332 199.23ZM502.828 199.244C502.828 198.665 502.711 198.161 502.478 197.732C502.245 197.302 501.927 196.976 501.526 196.752C501.134 196.518 500.7 196.402 500.224 196.402C499.748 196.402 499.314 196.514 498.922 196.738C498.53 196.962 498.217 197.288 497.984 197.718C497.751 198.147 497.634 198.651 497.634 199.23C497.634 199.818 497.751 200.331 497.984 200.77C498.217 201.199 498.53 201.53 498.922 201.764C499.314 201.988 499.748 202.1 500.224 202.1C500.7 202.1 501.134 201.988 501.526 201.764C501.927 201.53 502.245 201.199 502.478 200.77C502.711 200.331 502.828 199.822 502.828 199.244ZM515.215 195.282C515.812 195.282 516.344 195.408 516.811 195.66C517.278 195.902 517.646 196.271 517.917 196.766C518.188 197.26 518.323 197.862 518.323 198.572V203.094H517.063V198.754C517.063 197.988 516.872 197.405 516.489 197.004C516.116 196.593 515.607 196.388 514.963 196.388C514.3 196.388 513.773 196.602 513.381 197.032C512.989 197.452 512.793 198.063 512.793 198.866V203.094H511.533V198.754C511.533 197.988 511.342 197.405 510.959 197.004C510.586 196.593 510.077 196.388 509.433 196.388C508.77 196.388 508.243 196.602 507.851 197.032C507.459 197.452 507.263 198.063 507.263 198.866V203.094H505.989V195.422H507.263V196.528C507.515 196.126 507.851 195.818 508.271 195.604C508.7 195.389 509.172 195.282 509.685 195.282C510.329 195.282 510.898 195.426 511.393 195.716C511.888 196.005 512.256 196.43 512.499 196.99C512.714 196.448 513.068 196.028 513.563 195.73C514.058 195.431 514.608 195.282 515.215 195.282ZM522.849 203.22C522.261 203.22 521.733 203.122 521.267 202.926C520.8 202.72 520.431 202.44 520.161 202.086C519.89 201.722 519.741 201.306 519.713 200.84H521.029C521.066 201.222 521.243 201.535 521.561 201.778C521.887 202.02 522.312 202.142 522.835 202.142C523.32 202.142 523.703 202.034 523.983 201.82C524.263 201.605 524.403 201.334 524.403 201.008C524.403 200.672 524.253 200.424 523.955 200.266C523.656 200.098 523.194 199.934 522.569 199.776C521.999 199.626 521.533 199.477 521.169 199.328C520.814 199.169 520.506 198.94 520.245 198.642C519.993 198.334 519.867 197.932 519.867 197.438C519.867 197.046 519.983 196.686 520.217 196.36C520.45 196.033 520.781 195.776 521.211 195.59C521.64 195.394 522.13 195.296 522.681 195.296C523.53 195.296 524.216 195.51 524.739 195.94C525.261 196.369 525.541 196.957 525.579 197.704H524.305C524.277 197.302 524.113 196.98 523.815 196.738C523.525 196.495 523.133 196.374 522.639 196.374C522.181 196.374 521.817 196.472 521.547 196.668C521.276 196.864 521.141 197.12 521.141 197.438C521.141 197.69 521.22 197.9 521.379 198.068C521.547 198.226 521.752 198.357 521.995 198.46C522.247 198.553 522.592 198.66 523.031 198.782C523.581 198.931 524.029 199.08 524.375 199.23C524.72 199.37 525.014 199.584 525.257 199.874C525.509 200.163 525.639 200.541 525.649 201.008C525.649 201.428 525.532 201.806 525.299 202.142C525.065 202.478 524.734 202.744 524.305 202.94C523.885 203.126 523.399 203.22 522.849 203.22ZM362.103 221.23C362.103 220.446 362.261 219.76 362.579 219.172C362.896 218.574 363.33 218.112 363.881 217.786C364.441 217.459 365.061 217.296 365.743 217.296C366.415 217.296 366.998 217.44 367.493 217.73C367.987 218.019 368.356 218.383 368.599 218.822V217.422H369.887V225.094H368.599V223.666C368.347 224.114 367.969 224.487 367.465 224.786C366.97 225.075 366.391 225.22 365.729 225.22C365.047 225.22 364.431 225.052 363.881 224.716C363.33 224.38 362.896 223.908 362.579 223.302C362.261 222.695 362.103 222.004 362.103 221.23ZM368.599 221.244C368.599 220.665 368.482 220.161 368.249 219.732C368.015 219.302 367.698 218.976 367.297 218.752C366.905 218.518 366.471 218.402 365.995 218.402C365.519 218.402 365.085 218.514 364.693 218.738C364.301 218.962 363.988 219.288 363.755 219.718C363.521 220.147 363.405 220.651 363.405 221.23C363.405 221.818 363.521 222.331 363.755 222.77C363.988 223.199 364.301 223.53 364.693 223.764C365.085 223.988 365.519 224.1 365.995 224.1C366.471 224.1 366.905 223.988 367.297 223.764C367.698 223.53 368.015 223.199 368.249 222.77C368.482 222.331 368.599 221.822 368.599 221.244ZM375.498 217.282C376.431 217.282 377.187 217.566 377.766 218.136C378.344 218.696 378.634 219.508 378.634 220.572V225.094H377.374V220.754C377.374 219.988 377.182 219.405 376.8 219.004C376.417 218.593 375.894 218.388 375.232 218.388C374.56 218.388 374.023 218.598 373.622 219.018C373.23 219.438 373.034 220.049 373.034 220.852V225.094H371.76V217.422H373.034V218.514C373.286 218.122 373.626 217.818 374.056 217.604C374.494 217.389 374.975 217.282 375.498 217.282ZM379.959 221.23C379.959 220.446 380.117 219.76 380.435 219.172C380.752 218.574 381.186 218.112 381.737 217.786C382.297 217.459 382.922 217.296 383.613 217.296C384.21 217.296 384.765 217.436 385.279 217.716C385.792 217.986 386.184 218.346 386.455 218.794V214.734H387.743V225.094H386.455V223.652C386.203 224.109 385.829 224.487 385.335 224.786C384.84 225.075 384.261 225.22 383.599 225.22C382.917 225.22 382.297 225.052 381.737 224.716C381.186 224.38 380.752 223.908 380.435 223.302C380.117 222.695 379.959 222.004 379.959 221.23ZM386.455 221.244C386.455 220.665 386.338 220.161 386.105 219.732C385.871 219.302 385.554 218.976 385.153 218.752C384.761 218.518 384.327 218.402 383.851 218.402C383.375 218.402 382.941 218.514 382.549 218.738C382.157 218.962 381.844 219.288 381.611 219.718C381.377 220.147 381.261 220.651 381.261 221.23C381.261 221.818 381.377 222.331 381.611 222.77C381.844 223.199 382.157 223.53 382.549 223.764C382.941 223.988 383.375 224.1 383.851 224.1C384.327 224.1 384.761 223.988 385.153 223.764C385.554 223.53 385.871 223.199 386.105 222.77C386.338 222.331 386.455 221.822 386.455 221.244ZM393.726 216.176C393.483 216.176 393.278 216.092 393.11 215.924C392.942 215.756 392.858 215.55 392.858 215.308C392.858 215.065 392.942 214.86 393.11 214.692C393.278 214.524 393.483 214.44 393.726 214.44C393.959 214.44 394.155 214.524 394.314 214.692C394.482 214.86 394.566 215.065 394.566 215.308C394.566 215.55 394.482 215.756 394.314 215.924C394.155 216.092 393.959 216.176 393.726 216.176ZM394.342 217.422V225.094H393.068V217.422H394.342ZM399.971 217.282C400.905 217.282 401.661 217.566 402.239 218.136C402.818 218.696 403.107 219.508 403.107 220.572V225.094H401.847V220.754C401.847 219.988 401.656 219.405 401.273 219.004C400.891 218.593 400.368 218.388 399.705 218.388C399.033 218.388 398.497 218.598 398.095 219.018C397.703 219.438 397.507 220.049 397.507 220.852V225.094H396.233V217.422H397.507V218.514C397.759 218.122 398.1 217.818 398.529 217.604C398.968 217.389 399.449 217.282 399.971 217.282ZM404.432 221.244C404.432 220.45 404.591 219.76 404.908 219.172C405.226 218.574 405.664 218.112 406.224 217.786C406.794 217.459 407.442 217.296 408.17 217.296C409.113 217.296 409.888 217.524 410.494 217.982C411.11 218.439 411.516 219.074 411.712 219.886H410.34C410.21 219.419 409.953 219.05 409.57 218.78C409.197 218.509 408.73 218.374 408.17 218.374C407.442 218.374 406.854 218.626 406.406 219.13C405.958 219.624 405.734 220.329 405.734 221.244C405.734 222.168 405.958 222.882 406.406 223.386C406.854 223.89 407.442 224.142 408.17 224.142C408.73 224.142 409.197 224.011 409.57 223.75C409.944 223.488 410.2 223.115 410.34 222.63H411.712C411.507 223.414 411.096 224.044 410.48 224.52C409.864 224.986 409.094 225.22 408.17 225.22C407.442 225.22 406.794 225.056 406.224 224.73C405.664 224.403 405.226 223.941 404.908 223.344C404.591 222.746 404.432 222.046 404.432 221.244ZM414.406 218.668C414.63 218.229 414.948 217.888 415.358 217.646C415.778 217.403 416.287 217.282 416.884 217.282V218.598H416.548C415.12 218.598 414.406 219.372 414.406 220.922V225.094H413.132V217.422H414.406V218.668ZM425.075 220.964C425.075 221.206 425.061 221.463 425.033 221.734H418.901C418.948 222.49 419.204 223.082 419.671 223.512C420.147 223.932 420.721 224.142 421.393 224.142C421.944 224.142 422.401 224.016 422.765 223.764C423.138 223.502 423.4 223.157 423.549 222.728H424.921C424.716 223.465 424.305 224.067 423.689 224.534C423.073 224.991 422.308 225.22 421.393 225.22C420.665 225.22 420.012 225.056 419.433 224.73C418.864 224.403 418.416 223.941 418.089 223.344C417.762 222.737 417.599 222.037 417.599 221.244C417.599 220.45 417.758 219.755 418.075 219.158C418.392 218.56 418.836 218.103 419.405 217.786C419.984 217.459 420.646 217.296 421.393 217.296C422.121 217.296 422.765 217.454 423.325 217.772C423.885 218.089 424.314 218.528 424.613 219.088C424.921 219.638 425.075 220.264 425.075 220.964ZM423.759 220.698C423.759 220.212 423.652 219.797 423.437 219.452C423.222 219.097 422.928 218.831 422.555 218.654C422.191 218.467 421.785 218.374 421.337 218.374C420.693 218.374 420.142 218.579 419.685 218.99C419.237 219.4 418.98 219.97 418.915 220.698H423.759ZM426.001 221.23C426.001 220.446 426.159 219.76 426.477 219.172C426.794 218.574 427.228 218.112 427.779 217.786C428.339 217.459 428.959 217.296 429.641 217.296C430.313 217.296 430.896 217.44 431.391 217.73C431.885 218.019 432.254 218.383 432.497 218.822V217.422H433.785V225.094H432.497V223.666C432.245 224.114 431.867 224.487 431.363 224.786C430.868 225.075 430.289 225.22 429.627 225.22C428.945 225.22 428.329 225.052 427.779 224.716C427.228 224.38 426.794 223.908 426.477 223.302C426.159 222.695 426.001 222.004 426.001 221.23ZM432.497 221.244C432.497 220.665 432.38 220.161 432.147 219.732C431.913 219.302 431.596 218.976 431.195 218.752C430.803 218.518 430.369 218.402 429.893 218.402C429.417 218.402 428.983 218.514 428.591 218.738C428.199 218.962 427.886 219.288 427.653 219.718C427.419 220.147 427.303 220.651 427.303 221.23C427.303 221.818 427.419 222.331 427.653 222.77C427.886 223.199 428.199 223.53 428.591 223.764C428.983 223.988 429.417 224.1 429.893 224.1C430.369 224.1 430.803 223.988 431.195 223.764C431.596 223.53 431.913 223.199 432.147 222.77C432.38 222.331 432.497 221.822 432.497 221.244ZM438.374 225.22C437.786 225.22 437.258 225.122 436.792 224.926C436.325 224.72 435.956 224.44 435.686 224.086C435.415 223.722 435.266 223.306 435.238 222.84H436.554C436.591 223.222 436.768 223.535 437.086 223.778C437.412 224.02 437.837 224.142 438.36 224.142C438.845 224.142 439.228 224.034 439.508 223.82C439.788 223.605 439.928 223.334 439.928 223.008C439.928 222.672 439.778 222.424 439.48 222.266C439.181 222.098 438.719 221.934 438.094 221.776C437.524 221.626 437.058 221.477 436.694 221.328C436.339 221.169 436.031 220.94 435.77 220.642C435.518 220.334 435.392 219.932 435.392 219.438C435.392 219.046 435.508 218.686 435.742 218.36C435.975 218.033 436.306 217.776 436.736 217.59C437.165 217.394 437.655 217.296 438.206 217.296C439.055 217.296 439.741 217.51 440.264 217.94C440.786 218.369 441.066 218.957 441.104 219.704H439.83C439.802 219.302 439.638 218.98 439.34 218.738C439.05 218.495 438.658 218.374 438.164 218.374C437.706 218.374 437.342 218.472 437.072 218.668C436.801 218.864 436.666 219.12 436.666 219.438C436.666 219.69 436.745 219.9 436.904 220.068C437.072 220.226 437.277 220.357 437.52 220.46C437.772 220.553 438.117 220.66 438.556 220.782C439.106 220.931 439.554 221.08 439.9 221.23C440.245 221.37 440.539 221.584 440.782 221.874C441.034 222.163 441.164 222.541 441.174 223.008C441.174 223.428 441.057 223.806 440.824 224.142C440.59 224.478 440.259 224.744 439.83 224.94C439.41 225.126 438.924 225.22 438.374 225.22ZM443.35 216.176C443.107 216.176 442.902 216.092 442.734 215.924C442.566 215.756 442.482 215.55 442.482 215.308C442.482 215.065 442.566 214.86 442.734 214.692C442.902 214.524 443.107 214.44 443.35 214.44C443.583 214.44 443.779 214.524 443.938 214.692C444.106 214.86 444.19 215.065 444.19 215.308C444.19 215.55 444.106 215.756 443.938 215.924C443.779 216.092 443.583 216.176 443.35 216.176ZM443.966 217.422V225.094H442.692V217.422H443.966ZM449.595 217.282C450.529 217.282 451.285 217.566 451.863 218.136C452.442 218.696 452.731 219.508 452.731 220.572V225.094H451.471V220.754C451.471 219.988 451.28 219.405 450.897 219.004C450.515 218.593 449.992 218.388 449.329 218.388C448.657 218.388 448.121 218.598 447.719 219.018C447.327 219.438 447.131 220.049 447.131 220.852V225.094H445.857V217.422H447.131V218.514C447.383 218.122 447.724 217.818 448.153 217.604C448.592 217.389 449.073 217.282 449.595 217.282ZM457.696 217.296C458.359 217.296 458.938 217.44 459.432 217.73C459.936 218.019 460.31 218.383 460.552 218.822V217.422H461.84V225.262C461.84 225.962 461.691 226.582 461.392 227.124C461.094 227.674 460.664 228.104 460.104 228.412C459.554 228.72 458.91 228.874 458.172 228.874C457.164 228.874 456.324 228.636 455.652 228.16C454.98 227.684 454.584 227.035 454.462 226.214H455.722C455.862 226.68 456.152 227.054 456.59 227.334C457.029 227.623 457.556 227.768 458.172 227.768C458.872 227.768 459.442 227.548 459.88 227.11C460.328 226.671 460.552 226.055 460.552 225.262V223.652C460.3 224.1 459.927 224.473 459.432 224.772C458.938 225.07 458.359 225.22 457.696 225.22C457.015 225.22 456.394 225.052 455.834 224.716C455.284 224.38 454.85 223.908 454.532 223.302C454.215 222.695 454.056 222.004 454.056 221.23C454.056 220.446 454.215 219.76 454.532 219.172C454.85 218.574 455.284 218.112 455.834 217.786C456.394 217.459 457.015 217.296 457.696 217.296ZM460.552 221.244C460.552 220.665 460.436 220.161 460.202 219.732C459.969 219.302 459.652 218.976 459.25 218.752C458.858 218.518 458.424 218.402 457.948 218.402C457.472 218.402 457.038 218.514 456.646 218.738C456.254 218.962 455.942 219.288 455.708 219.718C455.475 220.147 455.358 220.651 455.358 221.23C455.358 221.818 455.475 222.331 455.708 222.77C455.942 223.199 456.254 223.53 456.646 223.764C457.038 223.988 457.472 224.1 457.948 224.1C458.424 224.1 458.858 223.988 459.25 223.764C459.652 223.53 459.969 223.199 460.202 222.77C460.436 222.331 460.552 221.822 460.552 221.244Z" fill="#160041"/>
<defs>
<filter id="filter0_d_12_41" x="0" y="0" width="64" height="64" filterUnits="userSpaceOnUse" color-interpolation-filters="sRGB">
<feFlood flood-opacity="0" result="BackgroundImageFix"/>
<feColorMatrix in="SourceAlpha" type="matrix" values="0 0 0 0 0 0 0 0 0 0 0 0 0 0 0 0 0 0 127 0" result="hardAlpha"/>
<feOffset dy="3"/>
<feGaussianBlur stdDeviation="3"/>
<feComposite in2="hardAlpha" operator="out"/>
<feColorMatrix type="matrix" values="0 0 0 0 0 0 0 0 0 0 0 0 0 0 0 0 0 0 0.1 0"/>
<feBlend mode="normal" in2="BackgroundImageFix" result="effect1_dropShadow_12_41"/>
<feBlend mode="normal" in="SourceGraphic" in2="effect1_dropShadow_12_41" result="shape"/>
</filter>
<filter id="filter1_d_12_41" x="282" y="118.094" width="64.5006" height="64.0015" filterUnits="userSpaceOnUse" color-interpolation-filters="sRGB">
<feFlood flood-opacity="0" result="BackgroundImageFix"/>
<feColorMatrix in="SourceAlpha" type="matrix" values="0 0 0 0 0 0 0 0 0 0 0 0 0 0 0 0 0 0 127 0" result="hardAlpha"/>
<feOffset dy="3"/>
<feGaussianBlur stdDeviation="3"/>
<feComposite in2="hardAlpha" operator="out"/>
<feColorMatrix type="matrix" values="0 0 0 0 0 0 0 0 0 0 0 0 0 0 0 0 0 0 0.1 0"/>
<feBlend mode="normal" in2="BackgroundImageFix" result="effect1_dropShadow_12_41"/>
<feBlend mode="normal" in="SourceGraphic" in2="effect1_dropShadow_12_41" result="shape"/>
</filter>
<clipPath id="clip0_12_41">
<rect width="24.5006" height="24.0014" fill="white" transform="translate(302 135.094)"/>
</clipPath>
</defs>
</svg>
