<svg width="71" height="70" viewBox="0 0 71 70" fill="none" xmlns="http://www.w3.org/2000/svg">
<rect x="0.333984" width="70" height="70" rx="10" fill="#F8F2FF"/>
<path d="M36.6725 28.2355C35.9284 28.978 34.7224 28.978 33.9783 28.2355C33.2344 27.493 33.2344 26.2891 33.9783 25.5466C34.7224 24.8041 35.9284 24.8041 36.6725 25.5466C37.4163 26.2891 37.4163 27.493 36.6725 28.2355Z" fill="#9C4DF4"/>
<path d="M39.2747 31.1168C39.0426 31.1168 38.8105 31.0283 38.6338 30.8509C38.2804 30.497 38.2811 29.9237 38.6349 29.5705C39.352 28.8548 39.7468 27.9033 39.7468 26.8915C39.7468 25.8796 39.352 24.9281 38.6349 24.2124C38.2811 23.859 38.2804 23.2859 38.6338 22.9318C38.987 22.578 39.5603 22.5773 39.9142 22.9307C40.9741 23.9886 41.5578 25.395 41.5578 26.8915C41.5578 28.3877 40.9741 29.7944 39.9142 30.8523C39.7375 31.0287 39.5061 31.1168 39.2747 31.1168Z" fill="#9C4DF4"/>
<path d="M41.323 33.7824C41.0909 33.7824 40.8588 33.6938 40.6821 33.5167C40.3287 33.1626 40.3294 32.5895 40.6833 32.2361C42.1138 30.8083 42.9018 28.9102 42.9018 26.8912C42.9018 24.8723 42.1138 22.9741 40.6833 21.5464C40.3294 21.193 40.3287 20.6199 40.6821 20.2658C41.0355 19.9119 41.6086 19.9113 41.9625 20.2646C43.7359 22.0346 44.7127 24.388 44.7125 26.8912C44.7125 29.3945 43.7359 31.7481 41.9625 33.518C41.7858 33.6943 41.5544 33.7824 41.323 33.7824Z" fill="#9C4DF4"/>
<path d="M31.3712 31.116C31.1398 31.116 30.9084 31.0278 30.7315 30.8514C29.6715 29.7935 29.0879 28.3868 29.0879 26.8906C29.0879 25.3941 29.6715 23.9877 30.7315 22.9298C31.0853 22.5764 31.6587 22.5768 32.0119 22.9309C32.3653 23.2848 32.3646 23.8581 32.0107 24.2115C31.2936 24.9272 30.8988 25.8787 30.8988 26.8906C30.8988 27.9025 31.2936 28.8539 32.0107 29.5696C32.3646 29.9228 32.3653 30.4961 32.0119 30.85C31.8352 31.0272 31.6031 31.116 31.3712 31.116Z" fill="#9C4DF4"/>
<path d="M29.3233 33.7835C29.0917 33.7835 28.8603 33.6954 28.6836 33.5189C26.9102 31.749 25.9336 29.3956 25.9336 26.8923C25.9336 24.3888 26.9102 22.0355 28.6836 20.2655C29.0375 19.9123 29.6108 19.9128 29.964 20.2669C30.3174 20.6207 30.3167 21.1939 29.9628 21.5472C28.5323 22.975 27.7443 24.8731 27.7443 26.8921C27.7443 28.9111 28.5323 30.8094 29.9628 32.2372C30.3167 32.5906 30.3174 33.1637 29.964 33.5178C29.7873 33.6949 29.5552 33.7835 29.3233 33.7835Z" fill="#9C4DF4"/>
<path d="M47.2566 35.3477H23.3896C22.2197 35.3477 21.2715 36.2959 21.2715 37.4655V47.8817C21.2715 49.0515 22.2197 49.9997 23.3896 49.9997H47.2564C48.4262 49.9997 49.3744 49.0515 49.3744 47.8817V37.4655C49.3744 36.2959 48.4262 35.3477 47.2566 35.3477ZM28.2366 47.2822H24.9006C24.4007 47.2822 23.9954 46.8769 23.9954 46.3768V38.9706C23.9954 38.4707 24.4007 38.0652 24.9006 38.0652C25.4007 38.0652 25.8061 38.4705 25.8061 38.9706V45.4713H28.2366C28.7367 45.4713 29.142 45.8767 29.142 46.3768C29.142 46.8769 28.7367 47.2822 28.2366 47.2822ZM31.9472 46.3768C31.9472 46.8769 31.5418 47.2822 31.0417 47.2822C30.5416 47.2822 30.1363 46.8769 30.1363 46.3768V38.9706C30.1363 38.4707 30.5416 38.0652 31.0417 38.0652C31.5418 38.0652 31.9472 38.4705 31.9472 38.9706V46.3768ZM39.5653 39.2325L37.3293 46.6384C37.3291 46.6391 37.3289 46.6397 37.3287 46.6404C37.0858 47.4692 35.8478 47.4488 35.5965 46.6404C35.5963 46.6397 35.596 46.6391 35.5958 46.6384L33.3599 39.2325C33.2154 38.7536 33.4862 38.2485 33.965 38.1038C34.4434 37.9594 34.949 38.2302 35.0934 38.709L36.4626 43.2438L37.8317 38.709C37.9764 38.2302 38.4815 37.9592 38.9603 38.1038C39.4389 38.2485 39.7099 38.7536 39.5653 39.2325ZM45.1356 41.302C45.6357 41.302 46.041 41.7074 46.041 42.2075C46.041 42.7073 45.6357 43.1129 45.1356 43.1129H42.5661V45.4713H45.6233C46.1234 45.4713 46.5288 45.8767 46.5288 46.3768C46.5288 46.8769 46.1234 47.2822 45.6233 47.2822H41.6607C41.1606 47.2822 40.7552 46.8769 40.7552 46.3768V38.9706C40.7552 38.4707 41.1606 38.0652 41.6607 38.0652H45.7453C46.2452 38.0652 46.6508 38.4705 46.6508 38.9706C46.6508 39.4707 46.2452 39.8761 45.7453 39.8761H42.5659V41.302H45.1356Z" fill="#9C4DF4"/>
</svg>
